<svg width="31" height="31" viewBox="0 0 31 31" fill="none" xmlns="http://www.w3.org/2000/svg">
<rect x="-1" y="-1" width="32" height="32" fill="inherit"/>
<path d="M27.3125 5.6875H2.9375C2.41895 5.6875 2 6.10645 2 6.625V25.375C2 25.8936 2.41895 26.3125 2.9375 26.3125H27.3125C27.8311 26.3125 28.25 25.8936 28.25 25.375V6.625C28.25 6.10645 27.8311 5.6875 27.3125 5.6875ZM26.1406 8.93359V24.2031H4.10938V8.93359L3.30078 8.30371L4.45215 6.82422L5.70605 7.7998H24.5469L25.8008 6.82422L26.9521 8.30371L26.1406 8.93359V8.93359ZM24.5469 7.79688L15.125 15.1211L5.70312 7.79688L4.44922 6.82129L3.29785 8.30078L4.10645 8.93066L14.1143 16.7119C14.4021 16.9355 14.7561 17.0569 15.1206 17.0569C15.4851 17.0569 15.8391 16.9355 16.127 16.7119L26.1406 8.93359L26.9492 8.30371L25.7979 6.82422L24.5469 7.79688Z" fill="white"/>
</svg>
