<svg width="32" height="32" viewBox="0 0 32 32" fill="none" xmlns="http://www.w3.org/2000/svg">
<rect width="32" height="32" fill="inherit"/>
<path d="M16.0013 19.1667C19.4941 19.1667 22.3346 16.3262 22.3346 12.8333C22.3346 9.3405 19.4941 6.5 16.0013 6.5C12.5085 6.5 9.66797 9.3405 9.66797 12.8333C9.66797 16.3262 12.5085 19.1667 16.0013 19.1667ZM16.0013 9.66667C17.7477 9.66667 19.168 11.0869 19.168 12.8333C19.168 14.5797 17.7477 16 16.0013 16C14.2549 16 12.8346 14.5797 12.8346 12.8333C12.8346 11.0869 14.2549 9.66667 16.0013 9.66667Z" fill="white"/>
<path d="M14.7485 31.5387C15.0164 31.73 15.3375 31.8329 15.6668 31.8329C15.9961 31.8329 16.3172 31.73 16.5851 31.5387C17.0665 31.1983 28.3794 23.0298 28.3335 12.8332C28.3335 5.84909 22.6509 0.166504 15.6668 0.166504C8.68272 0.166504 3.00014 5.84909 3.00014 12.8253C2.95422 23.0298 14.2671 31.1983 14.7485 31.5387ZM15.6668 3.33317C20.9061 3.33317 25.1668 7.59392 25.1668 12.8411C25.2001 19.8679 18.2191 26.1775 15.6668 28.2469C13.1161 26.1759 6.13356 19.8648 6.16681 12.8332C6.16681 7.59392 10.4276 3.33317 15.6668 3.33317Z" fill="white"/>
</svg>
